<?xml version="1.0" standalone="no"?>
<svg viewBox="0 0 200 200" xmlns="http://www.w3.org/2000/svg">
  <path fill="#FF0066" d="M45.2,-79.4C58.4,-70.7,68.6,-58.1,77.1,-44.2C85.7,-30.3,92.6,-15.2,93.6,0.6C94.6,16.4,89.8,32.7,80.8,45.9C71.9,59.1,58.8,69.1,44.6,76.3C30.4,83.5,15.2,87.9,0.2,87.6C-14.8,87.2,-29.6,82.1,-42.4,74C-55.2,66,-66,55.2,-73.7,42.4C-81.4,29.5,-86,14.8,-87,-0.6C-88.1,-16,-85.7,-32,-77.9,-44.8C-70.2,-57.5,-57.1,-66.9,-43.3,-75.2C-29.4,-83.4,-14.7,-90.5,0.7,-91.7C16,-92.8,32.1,-88.1,45.2,-79.4Z" transform="translate(100 100)" />
</svg>
