<svg xmlns="http://www.w3.org/2000/svg" viewBox="0 0 244.65 230.09"><defs><style>.cls-1,.cls-6{fill:#af9cda;}.cls-2,.cls-8{fill:#243762;}.cls-3{fill:#fff;}.cls-4,.cls-9{fill:#ecf1f7;}.cls-5{fill:#c5d9ff;}.cls-6{opacity:0.33;}.cls-7{fill:#f7a9b4;}.cls-8{opacity:0.29;}.cls-9{opacity:0.35;}</style></defs><g id="Layer_2" data-name="Layer 2"><g id="OBJECTS"><circle class="cls-1" cx="98.43" cy="52.65" r="52.33"/><path class="cls-2" d="M134.77,90.33a.54.54,0,0,1-.36-.14.51.51,0,0,1,0-.71,51.83,51.83,0,1,0-73.29-73.3.5.5,0,0,1-.71-.71,52.83,52.83,0,1,1,74.71,74.72A.52.52,0,0,1,134.77,90.33Z"/><circle class="cls-3" cx="98.43" cy="52.65" r="39.82"/><path class="cls-2" d="M98.43,93a40.32,40.32,0,0,1,0-80.64.5.5,0,0,1,.5.5.5.5,0,0,1-.5.5,39.32,39.32,0,0,0,0,78.64.5.5,0,0,1,0,1Z"/><path class="cls-2" d="M108.75,60.26H97.92a4,4,0,0,1-4-4v-15a3.5,3.5,0,1,1,7,0v12h7.86a3.5,3.5,0,0,1,0,7Z"/><path class="cls-2" d="M17.19,70.82,73.56,127.2a28.25,28.25,0,0,0,39.93,0l6.74-6.74a6.51,6.51,0,0,0,0-9.22l-23-23a6.51,6.51,0,0,0-9.22,0l-11.5,11.5a2.31,2.31,0,0,1-3.26,0L45.36,71.84a2.26,2.26,0,0,1,0-3.21L56.7,57.29a6.53,6.53,0,0,0,0-9.22L33.07,24.45a6.5,6.5,0,0,0-9.13-.08l-6.4,6.18A28.22,28.22,0,0,0,17.19,70.82Z"/><path class="cls-4" d="M19,31.68,50.63,63.36l1.08-1.09,5-5a6.53,6.53,0,0,0,0-9.22L33.07,24.45a6.5,6.5,0,0,0-9.13-.08l-6.4,6.18Z"/><path class="cls-2" d="M50.63,64.07l-32-32-1.84-1.48L23.59,24a7.05,7.05,0,0,1,9.84.08L57.05,47.72a7,7,0,0,1,0,9.92ZM18.29,30.51l1,.82L50.63,62.65l5.72-5.72a6,6,0,0,0,0-8.5L32.72,24.8a6,6,0,0,0-8.43-.07Z"/><path class="cls-4" d="M83.39,95l31.67,31.68,1.09-1.09,5-5a6.53,6.53,0,0,0,0-9.22L97.51,87.8a6.5,6.5,0,0,0-9.13-.08L82,93.9Z"/><path class="cls-2" d="M115.06,127.42l-32-32-1.83-1.48L88,87.36a7.05,7.05,0,0,1,9.83.08l23.63,23.63a7,7,0,0,1,0,9.92ZM82.73,93.86l1,.82L115.06,126l5.72-5.72a6,6,0,0,0,0-8.5L97.16,88.15a6.05,6.05,0,0,0-8.44-.07Z"/><line class="cls-4" x1="21.38" y1="27.95" x2="40.68" y2="47.25"/><path class="cls-2" d="M40.68,47.75a.47.47,0,0,1-.35-.15L21,28.3a.5.5,0,0,1,.71-.71L41,46.89a.5.5,0,0,1,0,.71A.49.49,0,0,1,40.68,47.75Z"/><line class="cls-4" x1="98.15" y1="104.72" x2="117.45" y2="124.02"/><path class="cls-2" d="M117.45,124.52a.49.49,0,0,1-.35-.15l-19.3-19.3a.49.49,0,0,1,.7-.7l19.3,19.3a.48.48,0,0,1,0,.7A.47.47,0,0,1,117.45,124.52Z"/><path class="cls-2" d="M200.61,229.92,126.71,219a15.29,15.29,0,0,1-12.89-17.37l26.5-179.18A15.3,15.3,0,0,1,157.69,9.55l73.9,10.93a15.3,15.3,0,0,1,12.89,17.37L218,217A15.29,15.29,0,0,1,200.61,229.92Z"/><rect class="cls-4" x="93.93" y="71.29" width="171.05" height="92.75" transform="matrix(0.15, -0.99, 0.99, 0.15, 36.8, 277.98)"/><rect class="cls-1" x="184.61" y="-6.96" width="12.84" height="92.75" transform="translate(124.09 222.62) rotate(-81.59)"/><path class="cls-4" d="M165.39,218.77a6.65,6.65,0,0,1-.88-.07,6,6,0,1,1,6.8-5A6,6,0,0,1,165.39,218.77Zm0-11a5,5,0,0,0-4.93,4.26,5,5,0,0,0,9.87,1.46,5,5,0,0,0-4.2-5.67A6.27,6.27,0,0,0,165.38,207.79Z"/><path class="cls-4" d="M178.65,24.66l-.28,0a1.89,1.89,0,0,1-1.27-.76,1.92,1.92,0,0,1,.4-2.69,1.88,1.88,0,0,1,1.43-.36,1.92,1.92,0,0,1,1.26.76,1.88,1.88,0,0,1,.36,1.43h0A1.92,1.92,0,0,1,178.65,24.66Zm0-2.85a.91.91,0,0,0-.55.18,1,1,0,0,0-.37.61,1,1,0,0,0,.17.69.91.91,0,0,0,.61.36.92.92,0,0,0,1.05-.78h0a.9.9,0,0,0-.17-.69,1,1,0,0,0-.61-.36Z"/><path class="cls-4" d="M208.45,29.07l-.28,0-23.41-3.46a2,2,0,0,1-1.27-.76,1.91,1.91,0,0,1-.35-1.43,1.87,1.87,0,0,1,.75-1.26,1.9,1.9,0,0,1,1.43-.36l23.41,3.46A1.84,1.84,0,0,1,210,26a1.88,1.88,0,0,1,.36,1.43,1.91,1.91,0,0,1-.75,1.26A1.93,1.93,0,0,1,208.45,29.07ZM185,22.76a.91.91,0,0,0-.74,1.47.91.91,0,0,0,.6.37l23.41,3.46a.92.92,0,0,0,1.05-.78.92.92,0,0,0-.78-1.05l-23.4-3.46Z"/><path class="cls-5" d="M213.2,157.28l-64-9.46a1.89,1.89,0,0,0-2.16,1.61L144.57,166a1.92,1.92,0,0,0,1.61,2.17l54.72,8.09,5.63,7.77,1-6.79,2.64.39a1.91,1.91,0,0,0,2.17-1.6l2.45-16.61A1.91,1.91,0,0,0,213.2,157.28Z"/><path class="cls-2" d="M200.9,176.79h-.08l-54.71-8.09a2.35,2.35,0,0,1-1.58-.95,2.32,2.32,0,0,1-.45-1.78l2.45-16.61a2.41,2.41,0,0,1,2.74-2l14.79,2.19a.5.5,0,0,1-.15,1l-14.79-2.19a1.42,1.42,0,0,0-1.6,1.19l-2.45,16.6a1.35,1.35,0,0,0,.26,1.05,1.37,1.37,0,0,0,.92.55L201,175.8a.5.5,0,0,1-.07,1Z"/><path class="cls-5" d="M223.37,88.48l-64-9.46a1.91,1.91,0,0,0-2.17,1.61l-2.45,16.6a1.91,1.91,0,0,0,1.61,2.17l54.71,8.09,5.64,7.77,1-6.79,2.64.39a1.89,1.89,0,0,0,2.16-1.61L225,90.65A1.92,1.92,0,0,0,223.37,88.48Z"/><path class="cls-2" d="M217,116.55l-6.24-8.6-54.51-8.06a2.41,2.41,0,0,1-2-2.73.5.5,0,1,1,1,.14,1.45,1.45,0,0,0,.26,1,1.41,1.41,0,0,0,.93.55L211.36,107l5,7,.89-6.08,3.14.47a1.4,1.4,0,0,0,1.6-1.19l1.63-11a.51.51,0,0,1,.57-.43.51.51,0,0,1,.42.57l-1.63,11a2.42,2.42,0,0,1-2.74,2l-2.14-.32Z"/><path class="cls-1" d="M142.36,109.88l64,9.46a1.92,1.92,0,0,1,1.61,2.17l-2.46,16.6a1.89,1.89,0,0,1-2.16,1.61l-54.72-8.09L141,137.44l1-6.79-2.64-.39a1.91,1.91,0,0,1-1.61-2.17l2.45-16.6A1.91,1.91,0,0,1,142.36,109.88Z"/><path class="cls-2" d="M203.63,140.24l-.36,0-34.15-5.06a.49.49,0,0,1,.14-1l34.16,5A1.4,1.4,0,0,0,205,138l2.45-16.6a1.4,1.4,0,0,0-1.18-1.6.51.51,0,0,1-.42-.57.5.5,0,0,1,.56-.42,2.4,2.4,0,0,1,2,2.73L206,138.19a2.4,2.4,0,0,1-2.38,2.05Z"/><rect class="cls-3" x="160.22" y="148.11" width="15.74" height="92.75" transform="matrix(0.15, -0.99, 0.99, 0.15, -48.9, 332.31)"/><path class="cls-5" d="M136.91,189.74a5.58,5.58,0,1,1-4.7-6.34A5.59,5.59,0,0,1,136.91,189.74Z"/><path class="cls-6" d="M204.58,204.86a6.13,6.13,0,0,1-.74-.05L144.39,196a4.91,4.91,0,0,1-3.27-2,5,5,0,0,1,4.72-7.88L205.3,195a5,5,0,0,1-.72,9.9Zm-.59-1a4,4,0,1,0,1.16-7.87l-59.45-8.8a4,4,0,0,0-3.78,6.31,3.93,3.93,0,0,0,2.61,1.56Z"/><path class="cls-3" d="M151.8,35.4a1.32,1.32,0,0,1-.28,0,2,2,0,0,1-1.65-2.22,2,2,0,0,1,2.22-1.65,2,2,0,0,1,1.65,2.22h0A2,2,0,0,1,151.8,35.4Zm0-2.91a.93.93,0,0,0-.57.19,1,1,0,0,0-.38.63A1,1,0,0,0,151,34a1,1,0,0,0,1.72-.43h0a1,1,0,0,0-.81-1.09Z"/><path class="cls-3" d="M157.22,36.21a1.36,1.36,0,0,1-.29,0,2,2,0,1,1,.57-3.87,2,2,0,0,1,1.29.77,1.93,1.93,0,0,1,.36,1.45,2,2,0,0,1-1.93,1.68Zm0-2.92a1,1,0,0,0-.14,1.9.93.93,0,0,0,.71-.17,1,1,0,0,0,.38-.63h0a.9.9,0,0,0-.18-.71.93.93,0,0,0-.63-.38Z"/><path class="cls-3" d="M162.52,37l-.28,0a2,2,0,1,1,.28,0Zm0-2.92a1,1,0,0,0-.57.19,1,1,0,0,0-.37.63.93.93,0,0,0,.17.71,1,1,0,0,0,1.72-.43.94.94,0,0,0-.81-1.08Z"/><path class="cls-2" d="M237.21,53.23h-.07L152.21,40.66a.5.5,0,0,1,.15-1l84.92,12.57a.49.49,0,0,1,.42.56A.5.5,0,0,1,237.21,53.23Z"/><path class="cls-3" d="M201.8,161.11h-.07l-45.31-6.7a.5.5,0,0,1,.14-1l45.32,6.71a.5.5,0,0,1,.42.56A.51.51,0,0,1,201.8,161.11Z"/><path class="cls-3" d="M175,162.67h-.08l-19.28-2.85a.5.5,0,0,1,.14-1l19.29,2.85a.51.51,0,0,1,.42.57A.5.5,0,0,1,175,162.67Z"/><path class="cls-3" d="M168.48,166.88h-.07l-13.54-2a.5.5,0,0,1,.15-1l13.53,2a.51.51,0,0,1,.42.57A.5.5,0,0,1,168.48,166.88Z"/><path class="cls-3" d="M201,166.52h-.08L181,163.56a.5.5,0,0,1,.15-1l19.93,3a.5.5,0,0,1-.07,1Z"/><path class="cls-3" d="M196.27,123.51h-.07l-45.32-6.7a.51.51,0,0,1-.42-.57.49.49,0,0,1,.57-.42l45.31,6.7a.5.5,0,0,1-.07,1Z"/><path class="cls-3" d="M169.44,125.06h-.07l-19.29-2.86a.5.5,0,1,1,.15-1l19.29,2.85a.5.5,0,0,1,.42.57A.51.51,0,0,1,169.44,125.06Z"/><path class="cls-3" d="M189.49,133.2h-.08l-39.11-6.07a.5.5,0,1,1,.15-1l39.11,6.06a.51.51,0,0,1,.42.57A.5.5,0,0,1,189.49,133.2Z"/><path class="cls-3" d="M195.47,128.91h-.07l-19.93-3a.5.5,0,0,1,.14-1l19.94,3a.5.5,0,0,1,.42.57A.51.51,0,0,1,195.47,128.91Z"/><path class="cls-1" d="M150.58,47.46l64,9.46a1.92,1.92,0,0,1,1.61,2.17L213.73,75.7a1.89,1.89,0,0,1-2.16,1.6l-54.72-8.09L149.2,75l1-6.79-2.65-.39a1.91,1.91,0,0,1-1.6-2.17l2.45-16.6A1.91,1.91,0,0,1,150.58,47.46Z"/><path class="cls-2" d="M213.73,76.19h-.07a.5.5,0,0,1-.42-.57L215.69,59a1.4,1.4,0,0,0-1.18-1.6l-39.74-5.88a.5.5,0,0,1-.42-.57.51.51,0,0,1,.57-.42l39.73,5.88a2.35,2.35,0,0,1,1.58,1,2.32,2.32,0,0,1,.45,1.78l-2.45,16.61A.5.5,0,0,1,213.73,76.19Z"/><path class="cls-3" d="M204.49,61.09h-.07l-45.32-6.7a.51.51,0,0,1-.42-.57.5.5,0,0,1,.57-.42l45.31,6.7a.5.5,0,0,1-.07,1Z"/><path class="cls-3" d="M177.66,62.64h-.07L158.3,59.78a.5.5,0,1,1,.15-1l19.29,2.85a.5.5,0,0,1,.42.57A.51.51,0,0,1,177.66,62.64Z"/><path class="cls-3" d="M197.7,70.78h-.07L158.52,64.7a.5.5,0,1,1,.15-1l39.11,6.06a.51.51,0,0,1,.42.57A.51.51,0,0,1,197.7,70.78Z"/><path class="cls-3" d="M203.69,66.49h-.07l-19.93-2.95a.51.51,0,0,1-.43-.57.5.5,0,0,1,.57-.42l19.93,3a.5.5,0,0,1,.43.57A.51.51,0,0,1,203.69,66.49Z"/><path class="cls-3" d="M212,93H212l-45.32-6.7a.51.51,0,0,1-.42-.57.5.5,0,0,1,.57-.42L212.09,92a.5.5,0,0,1-.07,1Z"/><path class="cls-3" d="M185.19,94.5h-.07l-19.29-2.86a.5.5,0,0,1-.42-.57.51.51,0,0,1,.57-.42l19.29,2.86a.5.5,0,0,1,.42.56A.51.51,0,0,1,185.19,94.5Z"/><path class="cls-3" d="M178.7,98.71h-.08l-13.53-2a.5.5,0,0,1-.43-.56.51.51,0,0,1,.57-.43l13.54,2a.5.5,0,0,1,.42.56A.5.5,0,0,1,178.7,98.71Z"/><path class="cls-3" d="M211.22,98.35h-.07L191.22,95.4a.5.5,0,1,1,.14-1l19.93,3a.5.5,0,0,1,.43.56A.51.51,0,0,1,211.22,98.35Z"/><path class="cls-7" d="M114.54,209.51,11.88,221.07a3.58,3.58,0,0,1-4-3.16L.5,152.14a.19.19,0,0,1,.17-.21l109.39-12.32a.18.18,0,0,1,.21.16l7.41,65.79A3.56,3.56,0,0,1,114.54,209.51Z"/><path class="cls-2" d="M11.48,221.6A4.11,4.11,0,0,1,7.41,218L0,152.2a.7.7,0,0,1,.61-.77L110,139.11a.69.69,0,0,1,.76.61l7.41,65.79a4.05,4.05,0,0,1-3.59,4.49L11.94,221.57ZM1,152.39l7.38,65.46a3.1,3.1,0,0,0,3.42,2.73L114.48,209l.06.5-.06-.5a3,3,0,0,0,2.06-1.14,3,3,0,0,0,.65-2.25l-7.38-65.48Z"/><path class="cls-8" d="M109.73,209.51,16.9,221.07c-2,.23,28.77-39.2,28.55-41.17L.5,152.14a.19.19,0,0,1,.17-.21l109.39-12.32a.18.18,0,0,1,.21.16l-37.42,37C73.07,178.77,111.69,209.29,109.73,209.51Z"/><path class="cls-7" d="M.67,151.93l45.24-44.74A8.21,8.21,0,0,1,56,106l53.77,33.39a.11.11,0,0,1,0,.21L.48,152"/><path class="cls-2" d="M.54,152.45l-.09-.74-.13-.13.11-.11h0l45.12-44.61a8.7,8.7,0,0,1,10.72-1.23L110.05,139a.61.61,0,0,1,.27.65.59.59,0,0,1-.52.48ZM51.69,105.3a7.7,7.7,0,0,0-5.43,2.25L2,151.27l106.54-12L55.75,106.46A7.71,7.71,0,0,0,51.69,105.3Z"/><path class="cls-8" d="M.67,151.93l45.24-44.74A8.21,8.21,0,0,1,56,106l53.77,33.39a.11.11,0,0,1,0,.21L.48,152"/><path class="cls-7" d="M50.91,173l-34,47.32,92.83-10.46L66.05,171.3A10.27,10.27,0,0,0,50.91,173Z"/><path class="cls-2" d="M15.84,220.94,50.5,172.71l.41.29-.41-.29a10.77,10.77,0,0,1,15.88-1.79l44.52,39.31Zm43.41-51.71a9.74,9.74,0,0,0-7.93,4.07L18,219.69l90.58-10.2L65.72,171.67A9.82,9.82,0,0,0,59.25,169.23Z"/><path class="cls-3" d="M6.19,119.52l71.5-8c4.69-.53,8.86,2.34,9.32,6.41l4.59,40.78L71.72,176.94l-26.27,3-26-16.23L15,124.15Z"/><path class="cls-2" d="M45.33,180.42,19,164l-4.45-39.49-6.8-5.63L77.64,111a9.72,9.72,0,0,1,6.58,1.56,7.4,7.4,0,0,1,3.28,5.29l4.63,41L71.94,177.42ZM20,163.37l25.6,16,25.94-2.92,19.58-18-4.57-40.54a6.4,6.4,0,0,0-2.86-4.57,8.69,8.69,0,0,0-5.9-1.4L7.87,119.84l7.64,4Z"/><path class="cls-8" d="M50.91,168.92l-34,51.4,92.83-10.46L66.05,167.22A10.27,10.27,0,0,0,50.91,168.92Z"/><path class="cls-7" d="M50.91,173l-34,47.32,92.83-10.46L66.05,171.3A10.27,10.27,0,0,0,50.91,173Z"/><path class="cls-2" d="M15.84,220.94,50.5,172.71l.41.29-.41-.29a10.77,10.77,0,0,1,15.88-1.79l44.52,39.31Zm43.41-51.71a9.74,9.74,0,0,0-7.93,4.07L18,219.69l90.58-10.2L65.72,171.67A9.82,9.82,0,0,0,59.25,169.23Z"/><path class="cls-9" d="M54.2,183.47l-25,34.75,68.17-7.68L65.32,182.22A7.55,7.55,0,0,0,54.2,183.47Z"/><line class="cls-7" x1="0.71" y1="152.02" x2="45.45" y2="179.9"/><rect class="cls-2" x="22.58" y="139.6" width="1" height="52.71" transform="translate(-129.98 97.78) rotate(-58.07)"/><line class="cls-7" x1="110.26" y1="139.68" x2="72.85" y2="176.81"/><rect class="cls-2" x="65.2" y="157.74" width="52.71" height="1" transform="translate(-84.92 110.48) rotate(-44.8)"/><path class="cls-4" d="M17,142.36,4.54,143.77,2.54,126a6,6,0,0,1,5.28-6.62l.57-.07A6,6,0,0,1,15,124.56Z"/><path class="cls-2" d="M4.1,144.32,2,126a6.49,6.49,0,0,1,5.73-7.18l.56-.06a6.48,6.48,0,0,1,7.18,5.72l2.06,18.3Zm5-24.58q-.32,0-.63,0l-.56.06A5.51,5.51,0,0,0,3,125.91l2,17.3,11.49-1.29-1.95-17.31a5.51,5.51,0,0,0-2-3.68A5.44,5.44,0,0,0,9.07,119.74Z"/><path class="cls-2" d="M25.49,133.09a.5.5,0,0,1-.49-.44.49.49,0,0,1,.44-.55l51.8-5.84a.5.5,0,1,1,.12,1l-51.81,5.84Z"/><path class="cls-2" d="M27.48,150.7a.5.5,0,0,1-.06-1l51.81-5.84a.5.5,0,0,1,.55.44.5.5,0,0,1-.44.55L27.53,150.7Z"/><path class="cls-2" d="M26.47,141.8a.5.5,0,0,1,0-1l22.39-2.52a.5.5,0,0,1,.55.44.5.5,0,0,1-.44.55l-22.39,2.52Z"/><path class="cls-2" d="M54.72,138.61a.49.49,0,0,1-.49-.44.48.48,0,0,1,.44-.55L78.22,135a.51.51,0,0,1,.56.44.51.51,0,0,1-.44.56l-23.56,2.65Z"/><path class="cls-2" d="M28.6,160.69a.5.5,0,0,1-.49-.44.5.5,0,0,1,.44-.56l22.38-2.52a.51.51,0,0,1,.56.44.51.51,0,0,1-.44.56l-22.39,2.52Z"/></g></g></svg>